<svg id="Capa_1" data-name="Capa 1" xmlns="http://www.w3.org/2000/svg" viewBox="0 0 566.93 566.93"><defs><style>.cls-1{fill:#80bc00;}.cls-2{fill:#2e2d2c;}</style></defs><title>logo</title><path class="cls-1" d="M229.75,534c-12.27-4-23.71-10.31-34.58-17.58a172.19,172.19,0,0,1-30.33-25.74A169.49,169.49,0,0,1,124.42,418c-7.26-28-6.91-58.5.13-86.32,3.08-14.15,8.55-27.23,14-40.19,2.85-6.09,6.61-12.92,9.22-18.1,2.34-4.72,5-9.33,6.89-14.14,17.43-37.75,22-77.68,9.89-118.21-5.86-20.2-15.82-40.14-28.89-58.84-13.36-18.47-28.84-36.6-51.16-48.82,6.42-.88,13-.21,19.63.66a131,131,0,0,1,19.24,5.3A150.58,150.58,0,0,1,159.05,58.1a181.5,181.5,0,0,1,54.78,61.6,177.3,177.3,0,0,1,21.6,83.55,194.46,194.46,0,0,1-4.77,43.58,223.29,223.29,0,0,1-14,40.74c-2.85,6.55-6.38,12.6-9.71,18.8l-8,14.54a218.2,218.2,0,0,0-12.48,28.57A157.6,157.6,0,0,0,177,409.17C178.64,450.28,198.68,493.88,229.75,534Z"/><path class="cls-2" d="M343.7,534c-12.28-4-23.71-10.31-34.59-17.58a172.49,172.49,0,0,1-30.32-25.74A169.28,169.28,0,0,1,238.37,418c-7.26-28-6.91-58.5.13-86.32,3.07-14.15,8.55-27.23,14-40.19,2.85-6.09,6.61-12.92,9.22-18.1,2.34-4.72,5-9.33,6.89-14.14,17.42-37.75,22-77.68,9.89-118.21-5.86-20.2-15.82-40.14-28.89-58.84-13.36-18.47-28.84-36.6-51.16-48.82,6.42-.88,13-.21,19.63.66a131,131,0,0,1,19.24,5.3A150.58,150.58,0,0,1,273,58.1a181.61,181.61,0,0,1,54.78,61.6,177.42,177.42,0,0,1,21.6,83.55,195.63,195.63,0,0,1-4.77,43.58,224.07,224.07,0,0,1-14,40.74c-2.85,6.55-6.38,12.6-9.7,18.8l-8,14.54a218.13,218.13,0,0,0-12.47,28.57A157.41,157.41,0,0,0,291,409.17C292.59,450.28,312.63,493.88,343.7,534Z"/><path class="cls-1" d="M456.74,534c-12.27-4-23.71-10.31-34.59-17.58a172.49,172.49,0,0,1-30.32-25.74A169.39,169.39,0,0,1,351.41,418c-7.26-28-6.91-58.5.13-86.32,3.08-14.15,8.55-27.23,14-40.19,2.85-6.09,6.61-12.92,9.22-18.1,2.34-4.72,5-9.33,6.89-14.14,17.43-37.75,22-77.68,9.89-118.21-5.86-20.2-15.82-40.14-28.89-58.84-13.36-18.47-28.84-36.6-51.16-48.82,6.42-.88,13-.21,19.63.66a131,131,0,0,1,19.24,5.3A150.58,150.58,0,0,1,386,58.1a181.5,181.5,0,0,1,54.78,61.6,177.3,177.3,0,0,1,21.6,83.55,195.63,195.63,0,0,1-4.77,43.58,224,224,0,0,1-14,40.74c-2.85,6.55-6.38,12.6-9.71,18.8l-8,14.54a219.48,219.48,0,0,0-12.47,28.57A157.41,157.41,0,0,0,404,409.17C405.63,450.28,425.67,493.88,456.74,534Z"/></svg>