<?xml version="1.0" encoding="utf-8"?>
<!-- Generator: Adobe Illustrator 22.1.0, SVG Export Plug-In . SVG Version: 6.00 Build 0)  -->
<svg version="1.1" id="Capa_1" xmlns="http://www.w3.org/2000/svg" xmlns:xlink="http://www.w3.org/1999/xlink" x="0px" y="0px"
	 viewBox="0 0 443.8 128" style="enable-background:new 0 0 443.8 128;" xml:space="preserve">
<style type="text/css">
	.st0{fill:#2E2D2C;}
	.st1{fill:#80BC00;}
	.st2{font-family:'Montserrat-ExtraBold';}
	.st3{font-size:29.5965px;}
	.st4{letter-spacing:3;}
</style>
<g>
	<g>
		<path class="st0" d="M96.9,21.2c1.3,2.4,2.3,4.9,3.1,7.5h17.2v54h19.7v-54h21.3V13.2H91.4C93.5,15.6,95.3,18.3,96.9,21.2z"/>
		<polygon class="st0" points="184.9,54.8 215.8,54.8 215.8,40.1 184.9,40.1 184.9,28.4 220,28.4 220,13.2 165.5,13.2 165.5,82.7 
			221.3,82.7 221.3,67.5 184.9,67.5 		"/>
		<path class="st0" d="M291.4,52.1c2.4-3.7,3.5-8.1,3.5-13.2c0-5.2-1.3-9.8-3.8-13.7c-2.5-3.9-6.1-6.9-10.7-8.9
			c-4.6-2.1-10.1-3.1-16.4-3.1h-31.8v69.6h19.7V64.2h10.7l12.6,18.5h21.1l-15-21.9C285.7,58.8,289.1,55.8,291.4,52.1z M272,46.4
			c-2.1,1.8-5.1,2.6-9.1,2.6h-10.9V28.7h10.9c4,0,7.1,0.9,9.1,2.7c2.1,1.8,3.1,4.3,3.1,7.6C275.1,42.2,274,44.7,272,46.4z"/>
		<path class="st0" d="M404.3,13.2H385l-23.8,54h-35.7v-54h-19.7v69.6h48.5h4.4h15.7l5.5-13.5h29.4l5.5,13.5h20.5L404.3,13.2z
			 M385.6,54.7l8.9-22.3l8.9,22.3H385.6z"/>
	</g>
	<text transform="matrix(1 0 0 1 177.0201 124.0587)" class="st1 st2 st3 st4">CALEFACCIÓN</text>
	<path class="st1" d="M36,126.1c-3-1-5.9-2.6-8.6-4.4c-2.7-1.8-5.2-4-7.5-6.4c-4.6-4.9-8.2-11.1-10-18c-1.8-6.9-1.7-14.5,0-21.4
		c0.8-3.5,2.1-6.8,3.5-10c0.7-1.5,1.6-3.2,2.3-4.5c0.6-1.2,1.2-2.3,1.7-3.5c4.3-9.4,5.5-19.3,2.5-29.3c-1.5-5-3.9-10-7.2-14.6
		C9.4,9.5,5.5,5,0,2c1.6-0.2,3.2-0.1,4.9,0.2c1.6,0.3,3.2,0.7,4.8,1.3c3.1,1.1,6.1,2.7,8.8,4.7C24,12,28.7,17.2,32.1,23.4
		c3.4,6.2,5.3,13.4,5.4,20.7c0,3.6-0.4,7.3-1.2,10.8c-0.9,3.5-2,6.9-3.5,10.1c-0.7,1.6-1.6,3.1-2.4,4.7l-2,3.6
		c-1.2,2.3-2.3,4.7-3.1,7.1c-1.7,4.8-2.5,9.7-2.3,14.8C23.4,105.4,28.3,116.2,36,126.1z"/>
	<path class="st0" d="M64.3,126.1c-3-1-5.9-2.6-8.6-4.4c-2.7-1.8-5.2-4-7.5-6.4c-4.6-4.9-8.2-11.1-10-18c-1.8-6.9-1.7-14.5,0-21.4
		c0.8-3.5,2.1-6.8,3.5-10c0.7-1.5,1.6-3.2,2.3-4.5c0.6-1.2,1.2-2.3,1.7-3.5c4.3-9.4,5.5-19.3,2.5-29.3c-1.5-5-3.9-10-7.2-14.6
		C37.6,9.5,33.8,5,28.3,2c1.6-0.2,3.2-0.1,4.9,0.2c1.6,0.3,3.2,0.7,4.8,1.3c3.1,1.1,6.1,2.7,8.8,4.7C52.3,12,57,17.2,60.3,23.4
		c3.4,6.2,5.3,13.4,5.4,20.7c0,3.6-0.4,7.3-1.2,10.8c-0.9,3.5-2,6.9-3.5,10.1c-0.7,1.6-1.6,3.1-2.4,4.7l-2,3.6
		c-1.2,2.3-2.3,4.7-3.1,7.1c-1.7,4.8-2.5,9.7-2.3,14.8C51.6,105.4,56.6,116.2,64.3,126.1z"/>
	<path class="st1" d="M92.3,126.1c-3-1-5.9-2.6-8.6-4.4c-2.7-1.8-5.2-4-7.5-6.4c-4.6-4.9-8.2-11.1-10-18c-1.8-6.9-1.7-14.5,0-21.4
		c0.8-3.5,2.1-6.8,3.5-10c0.7-1.5,1.6-3.2,2.3-4.5c0.6-1.2,1.2-2.3,1.7-3.5c4.3-9.4,5.5-19.3,2.5-29.3c-1.5-5-3.9-10-7.2-14.6
		C65.7,9.5,61.8,5,56.3,2c1.6-0.2,3.2-0.1,4.9,0.2c1.6,0.3,3.2,0.7,4.8,1.3c3.1,1.1,6.1,2.7,8.8,4.7C80.3,12,85,17.2,88.4,23.4
		c3.4,6.2,5.3,13.4,5.4,20.7c0,3.6-0.4,7.3-1.2,10.8c-0.9,3.5-2,6.9-3.5,10.1c-0.7,1.6-1.6,3.1-2.4,4.7l-2,3.6
		c-1.2,2.3-2.3,4.7-3.1,7.1c-1.7,4.8-2.5,9.7-2.3,14.8C79.7,105.4,84.6,116.2,92.3,126.1z"/>
</g>
</svg>
