<svg id="Capa_1" data-name="Capa 1" xmlns="http://www.w3.org/2000/svg" viewBox="0 0 566.93 566.93"><defs><style>.cls-1{fill:#2e2d2c;}.cls-2{font-size:29.6px;font-family:Montserrat-ExtraBold, Montserrat;font-weight:700;letter-spacing:0.12em;}.cls-2,.cls-8{fill:#80bc00;}.cls-3{letter-spacing:0.13em;}.cls-4{letter-spacing:0.1em;}.cls-5{letter-spacing:0.12em;}.cls-6{letter-spacing:0.11em;}.cls-7{letter-spacing:0.13em;}</style></defs><title>logo</title><path class="cls-1" d="M151.7,240.69a44.63,44.63,0,0,1,3.09,7.55H172v54h19.67v-54h21.27V232.63H146.25A47.69,47.69,0,0,1,151.7,240.69Z"/><polygon class="cls-1" points="239.74 274.27 270.65 274.27 270.65 259.56 239.74 259.56 239.74 247.84 274.82 247.84 274.82 232.63 220.26 232.63 220.26 302.2 276.11 302.2 276.11 286.99 239.74 286.99 239.74 274.27"/><path class="cls-1" d="M346.22,271.54a24.24,24.24,0,0,0,3.53-13.17,23.6,23.6,0,0,0-14.51-22.61,39.77,39.77,0,0,0-16.39-3.13H287V302.2h19.68V283.71h10.73l12.62,18.49h21.07l-15-21.87A23.86,23.86,0,0,0,346.22,271.54Zm-19.42-5.67q-3.09,2.64-9.15,2.64H306.72V248.14h10.93q6.06,0,9.15,2.68a9.5,9.5,0,0,1,3.08,7.55A9.32,9.32,0,0,1,326.8,265.87Z"/><path class="cls-1" d="M459.14,232.63H439.77l-23.82,54H380.26v-54H360.58V302.2h68.55l5.47-13.52H464l5.47,13.52H490Zm-18.78,41.54,8.95-22.26,8.94,22.26Z"/><text class="cls-2" transform="translate(231.82 343.52)">C<tspan class="cls-3" x="25.33" y="0">ALE</tspan><tspan class="cls-4" x="98.08" y="0">F</tspan><tspan class="cls-5" x="120.13" y="0">A</tspan><tspan class="cls-6" x="146.95" y="0">C</tspan><tspan class="cls-7" x="172.19" y="0">CIÓN</tspan></text><path class="cls-8" d="M90.83,345.6a35.4,35.4,0,0,1-8.58-4.36,43.18,43.18,0,0,1-7.52-6.38,42.2,42.2,0,0,1-10-18,43.71,43.71,0,0,1,0-21.41,56.76,56.76,0,0,1,3.47-10c.71-1.51,1.64-3.21,2.29-4.49s1.24-2.32,1.71-3.51c4.32-9.37,5.47-19.27,2.45-29.32a50,50,0,0,0-7.16-14.6c-3.32-4.58-7.16-9.08-12.7-12.11a18.55,18.55,0,0,1,4.87.16,33.92,33.92,0,0,1,4.78,1.32,37.27,37.27,0,0,1,8.85,4.65,45.05,45.05,0,0,1,13.58,15.28,43.87,43.87,0,0,1,5.36,20.72,48.35,48.35,0,0,1-1.18,10.82,55.46,55.46,0,0,1-3.47,10.1c-.71,1.63-1.59,3.13-2.41,4.67l-2,3.6a55,55,0,0,0-3.1,7.09,39.3,39.3,0,0,0-2.35,14.81C78.16,324.85,83.13,335.66,90.83,345.6Z"/><path class="cls-1" d="M119.1,345.6a35.4,35.4,0,0,1-8.58-4.36,42.81,42.81,0,0,1-7.52-6.38,42.09,42.09,0,0,1-10-18,43.83,43.83,0,0,1,0-21.41,57.62,57.62,0,0,1,3.48-10c.71-1.51,1.64-3.21,2.29-4.49s1.23-2.32,1.71-3.51c4.32-9.37,5.46-19.27,2.45-29.32a49.77,49.77,0,0,0-7.17-14.6c-3.31-4.58-7.15-9.08-12.69-12.11a18.56,18.56,0,0,1,4.87.16,33.42,33.42,0,0,1,4.77,1.32,36.89,36.89,0,0,1,8.85,4.65,45,45,0,0,1,13.59,15.28,44,44,0,0,1,5.36,20.72,48.35,48.35,0,0,1-1.18,10.82,54.74,54.74,0,0,1-3.48,10.1c-.7,1.63-1.58,3.13-2.4,4.67l-2,3.6a55,55,0,0,0-3.09,7.09A39.1,39.1,0,0,0,106,314.65C106.42,324.85,111.39,335.66,119.1,345.6Z"/><path class="cls-8" d="M147.14,345.6a35.4,35.4,0,0,1-8.58-4.36,42.81,42.81,0,0,1-7.52-6.38,42.2,42.2,0,0,1-10-18,43.71,43.71,0,0,1,0-21.41,56.76,56.76,0,0,1,3.47-10c.71-1.51,1.64-3.21,2.29-4.49s1.24-2.32,1.71-3.51c4.32-9.37,5.47-19.27,2.45-29.32a50,50,0,0,0-7.16-14.6c-3.32-4.58-7.16-9.08-12.7-12.11a18.55,18.55,0,0,1,4.87.16,33.92,33.92,0,0,1,4.78,1.32,37,37,0,0,1,8.84,4.65,45,45,0,0,1,13.59,15.28,43.87,43.87,0,0,1,5.36,20.72,48.35,48.35,0,0,1-1.18,10.82,55.46,55.46,0,0,1-3.47,10.1c-.71,1.63-1.59,3.13-2.41,4.67l-2,3.6a55,55,0,0,0-3.1,7.09,39.3,39.3,0,0,0-2.35,14.81C134.47,324.85,139.44,335.66,147.14,345.6Z"/></svg>